<svg width="14" height="18" viewBox="0 0 14 18" fill="none" xmlns="http://www.w3.org/2000/svg">
<path d="M7 0C3.40545 0 0.481079 2.92437 0.481079 6.51888C0.481079 10.9798 6.31487 17.5287 6.56325 17.8053C6.79655 18.0651 7.20387 18.0647 7.43674 17.8053C7.68512 17.5287 13.5189 10.9798 13.5189 6.51888C13.5188 2.92437 10.5945 0 7 0ZM7 16.5139C5.03663 14.1817 1.65502 9.5805 1.65502 6.51895C1.65502 3.57166 4.05274 1.17394 7 1.17394C9.94725 1.17394 12.345 3.57166 12.345 6.51892C12.3449 9.58061 8.96386 14.181 7 16.5139Z" fill="#EA5546"/>
</svg>
