<svg width="13" height="13" viewBox="0 0 13 13" fill="none" xmlns="http://www.w3.org/2000/svg">
<path d="M6.5 0C2.9159 0 0 2.91594 0 6.50004C0 10.0841 2.9159 13 6.5 13C10.0841 13 13 10.0841 13 6.50004C13 2.91594 10.0841 0 6.5 0ZM6.5 11.8182C3.56752 11.8182 1.18182 9.43249 1.18182 6.50004C1.18182 3.56759 3.56752 1.18182 6.5 1.18182C9.43248 1.18182 11.8182 3.56759 11.8182 6.50004C11.8182 9.43249 9.43245 11.8182 6.5 11.8182Z" fill="#EA5546"/>
<path d="M6.49991 2.75781C6.06555 2.75781 5.71219 3.11141 5.71219 3.54605C5.71219 3.98029 6.06555 4.33357 6.49991 4.33357C6.93427 4.33357 7.28763 3.98029 7.28763 3.54605C7.28763 3.11141 6.93427 2.75781 6.49991 2.75781Z" fill="#EA5546"/>
<path d="M6.5 5.51514C6.17366 5.51514 5.90909 5.77971 5.90909 6.10605V9.6515C5.90909 9.97784 6.17366 10.2424 6.5 10.2424C6.82634 10.2424 7.09091 9.97784 7.09091 9.6515V6.10605C7.09091 5.77971 6.82634 5.51514 6.5 5.51514Z" fill="#EA5546"/>
</svg>
