<svg width="18" height="18" viewBox="0 0 18 18" fill="none" xmlns="http://www.w3.org/2000/svg">
<path d="M13.1275 0H4.87243C2.18573 0 0 2.18573 0 4.87243V13.1277C0 15.8142 2.18573 18 4.87243 18H13.1277C15.8142 18 18 15.8142 18 13.1277V4.87243C18 2.18573 15.8142 0 13.1275 0V0ZM16.9447 13.1277C16.9447 15.2324 15.2324 16.9447 13.1275 16.9447H4.87243C2.76759 16.9447 1.05523 15.2324 1.05523 13.1277V4.87243C1.05523 2.76759 2.76759 1.05523 4.87243 1.05523H13.1277C15.2324 1.05523 16.9447 2.76759 16.9447 4.87243V13.1277Z" fill="#EA5546"/>
<path d="M8.99998 4.07825C6.28608 4.07825 4.07825 6.28609 4.07825 8.99998C4.07825 11.7139 6.28608 13.9217 8.99998 13.9217C11.7139 13.9217 13.9217 11.7139 13.9217 8.99998C13.9217 6.28609 11.7139 4.07825 8.99998 4.07825ZM8.99998 12.8665C6.86808 12.8665 5.13348 11.132 5.13348 8.99998C5.13348 6.86809 6.86808 5.13349 8.99998 5.13349C11.132 5.13349 12.8665 6.86809 12.8665 8.99998C12.8665 11.132 11.132 12.8665 8.99998 12.8665Z" fill="#EA5546"/>
<path d="M14.0394 2.33033C13.2374 2.33033 12.5851 2.98278 12.5851 3.78465C12.5851 4.58665 13.2374 5.2391 14.0394 5.2391C14.8414 5.2391 15.4938 4.58665 15.4938 3.78465C15.4938 2.98265 14.8414 2.33033 14.0394 2.33033ZM14.0394 4.18372C13.8194 4.18372 13.6403 4.00465 13.6403 3.78465C13.6403 3.56451 13.8194 3.38557 14.0394 3.38557C14.2595 3.38557 14.4386 3.56451 14.4386 3.78465C14.4386 4.00465 14.2595 4.18372 14.0394 4.18372Z" fill="#EA5546"/>
</svg>
