<svg width="24" height="30" viewBox="0 0 24 30" fill="none" xmlns="http://www.w3.org/2000/svg">
<path d="M9.21531 29.1253C5.15386 28.0358 2.62355 26.3388 1.41832 23.9127C0.243232 21.5494 0.433776 18.6125 2.00563 14.9263C5.22081 7.27204 15.8642 0.723257 16.3267 0.455817C16.4952 0.352238 16.7104 0.308069 16.8929 0.356848C17.0754 0.405627 17.2418 0.543956 17.3451 0.66935C17.6126 1.13191 24.2457 12.7325 23.0991 20.5486C22.535 24.3125 21.1402 26.9705 18.9407 28.4397C16.6093 30.0222 13.3298 30.2211 9.21531 29.1253ZM16.4375 2.04581C14.1225 3.58184 5.90693 9.27001 3.27084 15.4601C1.89585 18.7608 1.67342 21.2903 2.65768 23.2701C3.66233 25.3493 5.9229 26.7826 9.57287 27.7582C13.2693 28.7501 16.1514 28.5897 18.1726 27.2606C20.0088 26.0385 21.2231 23.7194 21.7361 20.3368C22.5757 14.0499 17.8092 4.61025 16.4375 2.04581Z" fill="#EA5546"/>
</svg>
