<svg width="11" height="11" viewBox="0 0 11 11" fill="none" xmlns="http://www.w3.org/2000/svg">
<path d="M5.54027 10.981C4.52957 10.981 3.60638 10.7342 2.77054 10.2405C1.9347 9.74687 1.26915 9.08394 0.773552 8.25137C0.277953 7.41898 0.0301514 6.49941 0.0301514 5.49249C0.0301514 4.47612 0.277953 3.55428 0.773552 2.72661C1.26915 1.89895 1.9347 1.24074 2.77054 0.751986C3.60638 0.26323 4.52957 0.0186768 5.54027 0.0186768C6.56065 0.0186768 7.47399 0.26323 8.28066 0.751986C9.08733 1.24074 9.72616 1.89895 10.1975 2.72661C10.6689 3.55428 10.9045 4.47612 10.9045 5.49249C10.9045 6.49941 10.6689 7.41898 10.1975 8.25137C9.72616 9.08394 9.08733 9.74687 8.28066 10.2405C7.47399 10.7342 6.56065 10.981 5.54027 10.981ZM5.54027 10.1099C6.38561 10.1099 7.14113 9.89952 7.80685 9.47834C8.47257 9.05733 8.99981 8.49592 9.38855 7.79413C9.7773 7.09233 9.97167 6.32506 9.97167 5.49249C9.97167 4.65048 9.7773 3.87848 9.38855 3.17668C8.99981 2.47488 8.47257 1.91593 7.80685 1.49965C7.14113 1.08337 6.38561 0.875226 5.54027 0.875226C4.27684 0.875226 3.19812 1.32792 2.30411 2.23296C1.40992 3.138 0.963004 4.22457 0.963004 5.49249C0.963004 6.32506 1.1695 7.09233 1.5825 7.79413C1.9955 8.49593 2.54945 9.05733 3.24434 9.47834C3.93924 9.89952 4.70443 10.1099 5.54027 10.1099Z" fill="#EA5546"/>
</svg>
