<svg width="24" height="24" viewBox="0 0 24 24" fill="none" xmlns="http://www.w3.org/2000/svg">
<g clip-path="url(#clip0)">
<path d="M23.3822 17.7015L20.3986 14.718C19.5761 13.8955 18.2376 13.8955 17.4151 14.718L16.0589 16.0741C15.4358 16.6973 14.4218 16.6971 13.7989 16.0744L7.92072 10.1912C7.29611 9.56662 7.29601 8.55567 7.92072 7.93096C8.13916 7.71253 8.76639 7.08529 9.27686 6.57482C10.0958 5.75592 10.1073 4.42162 9.27606 3.59053L6.29331 0.617153C5.47074 -0.205363 4.13232 -0.205363 3.31196 0.614996C2.69808 1.22353 2.50008 1.41984 2.22483 1.6927C-0.741424 4.6589 -0.741424 9.48529 2.22469 12.4514L11.5384 21.77C14.5116 24.7432 19.3238 24.7434 22.2972 21.77L23.3822 20.685C24.2048 19.8625 24.2048 18.5241 23.3822 17.7015ZM4.3043 1.61165C4.57848 1.33748 5.02454 1.33743 5.2996 1.6124L8.28236 4.58578C8.55719 4.8606 8.55719 5.3054 8.28236 5.58028L7.78506 6.07753L3.80958 2.10206L4.3043 1.61165ZM12.5331 20.7756L3.21933 11.4569C0.924422 9.16204 0.798282 5.55853 2.8314 3.11292L6.79534 7.07685C5.75378 8.25759 5.79718 10.0568 6.92598 11.1856L12.8039 17.0684C12.804 17.0685 12.8041 17.0686 12.8041 17.0686C13.9317 18.1963 15.7308 18.2425 16.913 17.1995L20.877 21.1635C18.4392 23.1931 14.8438 23.0863 12.5331 20.7756ZM22.3877 19.6905L21.8904 20.1878L17.9124 16.2097L18.4096 15.7125C18.6838 15.4383 19.1299 15.4383 19.4041 15.7125L22.3877 18.696C22.6619 18.9703 22.6619 19.4164 22.3877 19.6905Z" fill="#EA5546"/>
</g>
<defs>
<clipPath id="clip0">
<rect width="24" height="24" fill="white"/>
</clipPath>
</defs>
</svg>
