<svg width="18" height="18" viewBox="0 0 18 18" fill="none" xmlns="http://www.w3.org/2000/svg">
<g clip-path="url(#clip0)">
<path d="M17.7212 1.78802C17.5014 1.51913 17.172 1.37109 16.7938 1.37109C16.5883 1.37109 16.3705 1.41435 16.1466 1.4999L0.90994 7.3162C0.101347 7.62478 -0.00755536 8.08786 -0.000551583 8.33642C0.00645219 8.58499 0.141447 9.04119 0.966245 9.30363C0.971189 9.30514 0.976133 9.30665 0.981077 9.30803L4.14157 10.2125L5.85077 15.1C6.08381 15.7663 6.6069 16.1802 7.21609 16.1802C7.6002 16.1802 7.97799 16.0193 8.30868 15.715L10.2636 13.915L13.099 16.1981C13.0993 16.1984 13.0997 16.1985 13.1 16.1988L13.1269 16.2205C13.1293 16.2224 13.132 16.2245 13.1344 16.2264C13.4496 16.4708 13.7936 16.5999 14.1297 16.6001H14.1298C14.7864 16.6001 15.3092 16.1141 15.4615 15.362L17.958 3.03483C18.0582 2.54004 17.9742 2.09729 17.7212 1.78802ZM5.19887 10.0407L11.2964 6.92564L7.49968 10.96C7.43747 11.026 7.39338 11.1069 7.37169 11.1949L6.63959 14.1604L5.19887 10.0407ZM7.59416 14.9391C7.56889 14.9623 7.54349 14.983 7.51808 15.0021L8.19731 12.2511L9.43286 13.2461L7.59416 14.9391ZM16.9243 2.82541L14.4278 15.1528C14.4038 15.2707 14.327 15.5452 14.1297 15.5452C14.0321 15.5452 13.9096 15.4921 13.7843 15.3955L10.5713 12.8085C10.5709 12.8081 10.5704 12.8077 10.5698 12.8074L8.65805 11.268L14.1486 5.43383C14.3244 5.24707 14.3403 4.96101 14.1864 4.75584C14.0323 4.55067 13.7531 4.48613 13.5247 4.60286L4.49423 9.21629L1.29075 8.29976L16.5227 2.48524C16.6514 2.43608 16.7412 2.42578 16.7938 2.42578C16.8261 2.42578 16.8835 2.42962 16.9048 2.45585C16.9328 2.49005 16.9685 2.60664 16.9243 2.82541Z" fill="#EA5546"/>
</g>
<defs>
<clipPath id="clip0">
<rect width="18" height="18" fill="white"/>
</clipPath>
</defs>
</svg>
