<svg width="13" height="13" viewBox="0 0 13 13" fill="none" xmlns="http://www.w3.org/2000/svg">
<path d="M6.71289 0C4.82284 0 3.28516 1.53768 3.28516 3.42773C3.28516 5.31779 4.82284 6.85547 6.71289 6.85547C8.60294 6.85547 10.1406 5.31779 10.1406 3.42773C10.1406 1.53768 8.60294 0 6.71289 0ZM6.71289 6.09375C5.24285 6.09375 4.04688 4.89778 4.04688 3.42773C4.04688 1.95769 5.24285 0.761719 6.71289 0.761719C8.18293 0.761719 9.37891 1.95769 9.37891 3.42773C9.37891 4.89778 8.18293 6.09375 6.71289 6.09375Z" fill="#EA5546"/>
<path d="M10.9777 9.0948C10.0392 8.14194 8.79515 7.61719 7.47461 7.61719H5.95117C4.63066 7.61719 3.38657 8.14194 2.44813 9.0948C1.51429 10.043 1 11.2946 1 12.6191C1 12.8295 1.17052 13 1.38086 13H12.0449C12.2553 13 12.4258 12.8295 12.4258 12.6191C12.4258 11.2946 11.9115 10.043 10.9777 9.0948ZM1.77848 12.2383C1.96929 10.0779 3.76786 8.37891 5.95117 8.37891H7.47461C9.65792 8.37891 11.4565 10.0779 11.6473 12.2383H1.77848Z" fill="#EA5546"/>
</svg>
