<svg width="18" height="18" viewBox="0 0 18 18" fill="none" xmlns="http://www.w3.org/2000/svg">
<g clip-path="url(#clip0)">
<path d="M12.2747 8.92049C12.0687 8.71449 11.7349 8.71449 11.5289 8.92035L10.7035 9.7457L8.25398 7.2963L9.07933 6.47095C9.28532 6.26509 9.28532 5.93111 9.07933 5.72525L7.08242 3.72821C6.98355 3.6292 6.84938 3.57372 6.70958 3.57372C6.56977 3.57372 6.4356 3.6292 6.33673 3.72821L4.13974 5.92493C3.38388 6.68106 3.38388 7.91139 4.14001 8.66766L9.33215 13.8599C9.69744 14.2252 10.1844 14.4263 10.7035 14.4263C11.2226 14.4263 11.7096 14.2252 12.0749 13.8599L14.2717 11.6632C14.3706 11.5643 14.4262 11.4303 14.4262 11.2904C14.4262 11.1504 14.3706 11.0164 14.2717 10.9175L12.2747 8.92049ZM11.3292 13.1141C11.1632 13.2801 10.941 13.3716 10.7035 13.3716C10.4661 13.3716 10.2439 13.2801 10.0778 13.1142L4.88585 7.92197C4.54087 7.577 4.54074 7.01559 4.88557 6.67062L6.70958 4.84676L7.96064 6.0981L7.13543 6.92345C7.03642 7.02232 6.98094 7.15649 6.98094 7.2963C6.98094 7.43623 7.03642 7.57027 7.13543 7.66914L10.3307 10.8642C10.5365 11.0702 10.8704 11.0702 11.0764 10.8644L11.9017 10.039L13.1531 11.2904L11.3292 13.1141Z" fill="#EA5546"/>
<path d="M15.3638 2.63603C13.664 0.93631 11.4039 0.000137329 9 0C6.59605 0.000137329 4.33589 0.93631 2.63603 2.63603C0.936172 4.33603 -0.000137314 6.59605 1.51045e-08 8.99986C1.51045e-08 10.7533 0.501663 12.4435 1.45294 13.904L0.721115 16.7513C0.674698 16.9319 0.727158 17.1236 0.858994 17.2554C0.990829 17.3872 1.18268 17.4397 1.36313 17.3933L4.2572 16.6495C5.68034 17.5338 7.31483 18 8.99986 18C11.4038 18 13.664 17.0638 15.3638 15.364C17.0638 13.664 18 11.4039 18 8.99986C17.9999 6.59592 17.0637 4.33589 15.3638 2.63603ZM8.99986 16.9453C7.44241 16.9453 5.93413 16.4943 4.63802 15.6412C4.55109 15.584 4.45015 15.5543 4.34798 15.5543C4.30417 15.5543 4.26009 15.5598 4.21683 15.5709L1.96477 16.1498L2.53331 13.9378C2.57135 13.7899 2.54333 13.6327 2.45654 13.507C1.53946 12.1783 1.05469 10.6198 1.05469 8.99986C1.05455 6.87772 1.88113 4.8826 3.38173 3.38187C4.88246 1.88127 6.87772 1.05469 9 1.05469C13.3809 1.05482 16.9452 4.61906 16.9453 8.99986C16.9453 13.3809 13.3809 16.9453 8.99986 16.9453Z" fill="#EA5546"/>
</g>
<defs>
<clipPath id="clip0">
<rect width="18" height="18" fill="white"/>
</clipPath>
</defs>
</svg>
