<svg width="24" height="24" viewBox="0 0 24 24" fill="none" xmlns="http://www.w3.org/2000/svg">
<g clip-path="url(#clip0)">
<path fill-rule="evenodd" clip-rule="evenodd" d="M12.9944 10.166L6.49068 3.66231C5.62956 2.80118 4.22839 2.80115 3.36617 3.66337C2.50505 4.52449 2.50505 5.92569 3.36617 6.78681L9.86988 13.2905L10.8643 12.2962L9.86988 11.3018L4.36054 5.79244C4.04771 5.47962 4.04771 4.97056 4.3616 4.65668C4.67443 4.34385 5.18348 4.34385 5.49631 4.65668L11.0057 10.166L12 11.1604L12.9944 10.166ZM14.1302 11.3018L13.1358 12.2962L14.1302 13.2905L19.3434 18.5038C19.6563 18.8166 19.6563 19.3257 19.3434 19.6385C19.0295 19.9524 18.5205 19.9524 18.2077 19.6396L12.9944 14.4263L12 13.4319L11.0057 14.4263L17.2133 20.6339C18.0744 21.4951 19.4756 21.4951 20.3367 20.6339C21.199 19.7717 21.1989 18.3705 20.3378 17.5094L14.1302 11.3018Z" fill="#EA5546"/>
<path fill-rule="evenodd" clip-rule="evenodd" d="M17.5094 3.66223L11.0057 10.166L12 11.1604L12.9944 10.166L18.5038 4.65659C18.8166 4.34377 19.3257 4.34377 19.6385 4.65659C19.9524 4.97052 19.9524 5.47953 19.6396 5.79236L14.1302 11.3018L13.1358 12.2962L14.1302 13.2905L20.634 6.78673C21.4951 5.92561 21.4951 4.52441 20.634 3.66329C19.7718 2.8011 18.3706 2.8011 17.5094 3.66223ZM12.9944 14.4263L12 13.4319L11.0057 14.4263L5.79247 19.6395C5.47964 19.9523 4.97059 19.9523 4.6567 19.6384C4.34387 19.3256 4.34387 18.8165 4.6567 18.5037L9.86988 13.2905L10.8643 12.2962L9.86988 11.3018L3.66233 17.5093C2.8012 18.3705 2.8012 19.7717 3.66339 20.6338C4.52451 21.495 5.92571 21.495 6.78683 20.6338L12.9944 14.4263Z" fill="#EA5546"/>
</g>
<defs>
<clipPath id="clip0">
<rect width="24" height="24" fill="white"/>
</clipPath>
</defs>
</svg>
