<svg width="8" height="14" viewBox="0 0 8 14" fill="none" xmlns="http://www.w3.org/2000/svg">
<path d="M6.94237 13.6617C6.85485 13.5745 6.81126 13.4681 6.81126 13.3422V5.76285C6.81126 5.52093 6.77717 5.39979 6.70933 5.39979C6.67031 5.39979 6.6023 5.46999 6.50512 5.61038C6.40793 5.75078 6.07999 6.22273 5.52129 7.02606C4.96243 7.82956 4.33326 8.73705 3.63362 9.74852C2.93381 10.7602 2.31677 11.6531 1.78233 12.4274L0.980579 13.6036C0.883215 13.7295 0.761775 13.7923 0.616083 13.7923C0.54807 13.7923 0.475138 13.7755 0.397458 13.7415C0.319778 13.7076 0.254052 13.6472 0.200624 13.56C0.147198 13.4728 0.120483 13.3955 0.120483 13.3277V3.64293C0.120483 3.51724 0.164067 3.41081 0.25159 3.32363C0.339112 3.23645 0.455628 3.19286 0.601497 3.19286C0.737525 3.19286 0.849298 3.23645 0.936817 3.32363C1.02434 3.41081 1.0681 3.51724 1.0681 3.64293V11.1206C1.0681 11.3723 1.10694 11.4982 1.18462 11.4982C1.24296 11.4982 1.32557 11.4305 1.43242 11.295L6.8842 3.3961C6.99105 3.26061 7.11267 3.19287 7.24869 3.19287C7.31653 3.19287 7.38454 3.20739 7.45273 3.23645C7.65677 3.32363 7.75888 3.46385 7.75888 3.65746V13.3422C7.75888 13.4681 7.71512 13.5745 7.6276 13.6617C7.54008 13.7489 7.42848 13.7923 7.29245 13.7923C7.14658 13.7923 7.02989 13.7489 6.94237 13.6617ZM5.92217 1.42148C6.0582 1.25692 6.12621 1.1069 6.12621 0.971235L6.09703 0.855173C6.03869 0.700423 5.96101 0.615696 5.86382 0.601167C5.76663 0.586637 5.70354 0.579285 5.67437 0.579285C5.53834 0.579285 5.40706 0.651933 5.2807 0.797054C5.13483 1.00047 4.97209 1.15539 4.79231 1.26183C4.61252 1.36826 4.39143 1.42148 4.12922 1.42148C3.85699 1.42148 3.63099 1.36826 3.4512 1.26183C3.27141 1.15539 3.10867 1.00047 2.96298 0.797054C2.83662 0.651933 2.70551 0.579285 2.56949 0.579285H2.49655C2.2535 0.618147 2.13206 0.748739 2.13206 0.971235C2.13206 1.1069 2.19515 1.25692 2.32169 1.42148C2.76861 1.93457 3.37106 2.19102 4.12922 2.19102C4.87737 2.19102 5.47507 1.93457 5.92217 1.42148Z" fill="#EA5546"/>
</svg>
